<svg width="124" height="124" xmlns="http://www.w3.org/2000/svg" viewBox="0 0 512 512"><path d="M 83 46 L 83 232.36719 A 74.607 74.607 0 0 1 134.32227 228.55273 L 138.92969 229.82227 A 41.4 41.4 0 0 0 157.27148 230.7793 L 197.14844 223.80469 A 37.13 37.13 0 0 1 231.17383 235.61328 L 268.95898 207.37891 A 32.138 32.138 0 0 1 278 202.54688 L 278 46 L 220 46 L 220 90.630859 A 6.84 6.84 0 0 1 217.22656 96.341797 A 6.643 6.643 0 0 1 211.03906 97.234375 L 180.60547 86.554688 L 150.17773 97.234375 A 6.882 6.882 0 0 1 141 90.630859 L 141 46 L 83 46 z M 155 46 L 155 80.755859 L 178.27148 72.53125 A 6.514 6.514 0 0 1 182.73828 72.53125 L 206 80.755859 L 206 46 L 155 46 z M 130.59961 135 L 196.11133 135 A 7 7 0 0 1 196.11133 149 L 130.59961 149 A 7 7 0 0 1 130.59961 135 z M 130.59961 169 L 230.5918 169 A 7 7 0 0 1 230.5918 183 L 130.59961 183 A 7 7 0 0 1 130.59961 169 z M 287.70898 215.0957 A 15.66 15.66 0 0 0 277.50586 218.42383 L 277.35938 218.53516 L 238.38477 247.67969 A 37.152 37.152 0 0 1 240.06445 253.94531 A 7 7 0 0 1 234.375 262.04688 L 168.83789 273.50977 A 7 7 0 1 1 166.42578 259.7207 L 224 249.6543 A 23.132 23.132 0 0 0 199.54688 237.59961 L 159.67773 244.57617 A 55.411 55.411 0 0 1 135.09375 243.29688 L 130.63477 242.0332 A 60.094 60.094 0 0 0 71.972656 256.90039 L 81.300781 310.21484 L 84.638672 307.54688 A 32.1 32.1 0 0 1 107.67773 300.45703 L 178.73047 306 L 178.86523 306 A 62.373 62.373 0 0 0 214.92383 294 L 293.76172 216.54102 A 15.66 15.66 0 0 0 287.70898 215.0957 z M 55.376953 243.25977 L 25.449219 248.49414 L 39.816406 330.64258 L 69.746094 325.4082 L 55.376953 243.25977 z M 224.28516 350.67578 A 15.691 15.691 0 0 0 218.23828 352.07617 L 297.07812 429.35352 A 62.026 62.026 0 0 0 333.13281 441 L 333.26953 441 L 404.32227 435.80078 A 32.383 32.383 0 0 1 427.41797 443.26758 L 430.70508 445.89648 L 440.02734 392.58008 A 60.1 60.1 0 0 0 381.36523 377.70312 L 376.90625 378.97266 A 55.451 55.451 0 0 1 352.32227 380.25586 L 312.45312 373.28125 A 23.136 23.136 0 0 0 288 385.3418 L 345.57227 395.41211 A 7 7 0 0 1 344.37305 409.3125 A 7.072 7.072 0 0 1 343.1582 409.20703 L 277.62109 397.74219 A 7 7 0 0 1 271.93359 389.64258 A 37.208 37.208 0 0 1 273.61328 383.36914 L 234.64062 354.20703 C 234.59162 354.17103 234.53914 354.11317 234.49414 354.07617 A 15.691 15.691 0 0 0 224.28516 350.67578 z M 456.61719 378.94141 L 442.25 461.08984 L 472.17773 466.32422 L 486.54688 384.17773 L 456.61719 378.94141 z"></path></svg>