<svg width="124" height="124" xmlns="http://www.w3.org/2000/svg" viewBox="0 0 480 480"><path d="M201.316,326.729c-0.671,1.411-2.136,2.271-3.698,2.271H190c-2.209,0-4-1.791-4-4V223c0-4.418,3.582-8,8-8h84	c4.418,0,8,3.582,8,8v102c0,2.209-1.791,4-4,4h-33.618c-1.562,0-3.027-0.86-3.698-2.271	C235.99,308.443,210.001,308.462,201.316,326.729z M332.75,270H306c-2.209,0-4,1.791-4,4v51c0,4.601,6.587,5.364,8.316,1.729	c8.694-18.286,34.683-18.267,43.368,0c1.753,3.687,8.316,2.782,8.316-1.729v-25.75C362,283.096,348.904,270,332.75,270z M472,95H8	c-4.418,0-8-3.582-8-8V64c0-22.091,17.909-40,40-40h400c22.091,0,40,17.909,40,40v23C480,91.418,476.418,95,472,95z M160,63	c0,4.418,3.582,8,8,8h4c4.418,0,8-3.582,8-8s-3.582-8-8-8h-4C163.582,55,160,58.582,160,63z M110,63c0,4.418,3.582,8,8,8h4	c4.418,0,8-3.582,8-8s-3.582-8-8-8h-4C113.582,55,110,58.582,110,63z M60,63c0,4.418,3.582,8,8,8h4c4.418,0,8-3.582,8-8	s-3.582-8-8-8h-4C63.582,55,60,58.582,60,63z M8,111h464c4.418,0,8,3.582,8,8v297c0,22.091-17.909,40-40,40H40	c-22.091,0-40-17.909-40-40V119C0,114.582,3.582,111,8,111z M92,231c0,4.418,3.582,8,8,8h28c4.418,0,8-3.582,8-8s-3.582-8-8-8h-28	C95.582,223,92,226.582,92,231z M136,313c0-4.418-3.582-8-8-8h-28c-4.418,0-8,3.582-8,8s3.582,8,8,8h28	C132.418,321,136,317.418,136,313z M140,272c0-4.418-3.582-8-8-8h-15c-4.418,0-8,3.582-8,8s3.582,8,8,8h15	C136.418,280,140,276.418,140,272z M378,299.25c0-24.991-20.259-45.25-45.25-45.25H306c-2.209,0-4-1.791-4-4v-27	c0-13.255-10.745-24-24-24h-84c-13.255,0-24,10.745-24,24v114c0,4.418,3.582,8,8,8h19.618c1.562,0,3.027,0.86,3.698,2.271	c8.694,18.286,34.683,18.267,43.368,0c0.671-1.411,2.136-2.271,3.698-2.271c0.859,0,59.258,0,58.236,0	c1.562,0,3.027,0.86,3.698,2.271c8.694,18.286,34.683,18.267,43.368,0c0.671-1.411,2.136-2.271,3.698-2.271H370c4.418,0,8-3.582,8-8	V299.25z"></path></svg>